:FULLY-SPECIFIED
:FORCE-ALL-JOINTS-BE-3DOF
:DEGREES
372
root 9.29907 17.0199 16.3931 7.03041 4.32006 -5.72886
lfemur -30.9706 5.02619 -11.0247
ltibia 52.2457 0 0
lfoot -8.00816 11.0451 0
ltoes -9.70417 0 0
rfemur -0.99047 6.29986 31.7308
rtibia 12.0681 0 0
rfoot -10.7478 5.58989 0
rtoes -13.0652 0 0
lowerback -7.21989 0.776267 1.58915
upperback -1.04525 0.735474 3.55934
thorax 3.00616 0.383343 2.96632
lowerneck -19.0342 -6.62075 -13.7918
upperneck 20.3794 -8.6431 14.1484
head 10.964 -3.44151 6.13738
lclavicle 4.55776e-14 2.80658e-14 0
lhumerus -50.3896 -17.0133 100.393
lradius 27.0926 0 0
lwrist 9.6327 0 0
lhand -11.8419 -22.3673 0
lfingers 7.12502 0 0
lthumb 14.2085 7.11283 0
rclavicle 4.55776e-14 2.80658e-14 0
rhumerus -34.7559 14.8993 -85.258
rradius 39.9083 0 0
rwrist -21.4277 0 0
rhand -29.7746 -24.5323 0
rfingers 7.12502 0 0
rthumb -3.09977 -54.4896 0
373
root 9.30574 17.0107 16.5287 7.05623 4.08095 -5.91455
lfemur -31.6577 4.84841 -10.8544
ltibia 51.313 0 0
lfoot -8.13639 11.0255 0
ltoes -9.9581 0 0
rfemur 0.214387 6.35741 31.9543
rtibia 11.012 0 0
rfoot -10.4951 5.79987 0
rtoes -13.1287 0 0
lowerback -7.29524 0.925553 1.71941
upperback -1.02224 0.918539 3.59871
thorax 3.06576 0.475901 2.95554
lowerneck -19.0052 -6.63751 -13.8025
upperneck 20.3839 -8.66349 14.1342
head 10.9623 -3.45389 6.13043
lclavicle 4.65709e-14 2.94599e-14 0
lhumerus -50.9119 -16.6588 100.349
lradius 27.1144 0 0
lwrist 9.60497 0 0
lhand -11.722 -22.4812 0
lfingers 7.12502 0 0
lthumb 14.324 6.99054 0
rclavicle 4.65709e-14 2.94599e-14 0
rhumerus -34.4216 14.9283 -85.276
rradius 39.8818 0 0
rwrist -21.3016 0 0
rhand -29.7528 -24.3836 0
rfingers 7.12502 0 0
rthumb -3.07871 -54.3412 0
374
root 9.31293 17.0011 16.6636 7.07996 3.84477 -6.09195
lfemur -32.323 4.67265 -10.698
ltibia 50.3803 0 0
lfoot -8.2673 11.0019 0
ltoes -10.1997 0 0
rfemur 1.383 6.40915 32.1649
rtibia 10.004 0 0
rfoot -10.2499 5.9977 0
rtoes -13.1941 0 0
lowerback -7.36897 1.07026 1.84444
upperback -0.99852 1.09609 3.63608
thorax 3.12543 0.565618 2.94494
lowerneck -18.9792 -6.65203 -13.8111
upperneck 20.3904 -8.68072 14.118
head 10.9613 -3.46481 6.12296
lclavicle 4.75226e-14 3.08144e-14 0
lhumerus -51.4044 -16.3107 100.298
lradius 27.1335 0 0
lwrist 9.57144 0 0
lhand -11.6047 -22.594 0
lfingers 7.12502 0 0
lthumb 14.437 6.86965 0
rclavicle 4.75226e-14 3.08144e-14 0
rhumerus -34.098 14.9536 -85.2948
rradius 39.8537 0 0
rwrist -21.1742 0 0
rhand -29.732 -24.24 0
rfingers 7.12502 0 0
rthumb -3.0586 -54.1979 0
375
root 9.32061 16.9912 16.7981 7.10164 3.61164 -6.26114
lfemur -32.9665 4.49899 -10.555
ltibia 49.4482 0 0
lfoot -8.40069 10.9743 0
ltoes -10.4292 0 0
rfemur 2.51549 6.45523 32.3627
rtibia 9.04351 0 0
rfoot -10.0124 6.1836 0
rtoes -13.2613 0 0
lowerback -7.44108 1.21042 1.96429
upperback -0.97413 1.26814 3.67148
thorax 3.18514 0.652505 2.93453
lowerneck -18.9561 -6.66438 -13.8175
upperneck 20.3989 -8.69487 14.0998
head 10.961 -3.47431 6.115
lclavicle 4.8433e-14 3.21295e-14 0
lhumerus -51.8676 -15.9692 100.239
lradius 27.15 0 0
lwrist 9.53232 0 0
lhand -11.4901 -22.7054 0
lfingers 7.12502 0 0
lthumb 14.5474 6.75021 0
rclavicle 4.8433e-14 3.21295e-14 0
rhumerus -33.7852 14.9755 -85.3142
rradius 39.8242 0 0
rwrist -21.0456 0 0
rhand -29.7121 -24.1014 0
rfingers 7.12502 0 0
rthumb -3.03941 -54.0596 0
376
root 9.32877 16.9811 16.932 7.12132 3.38167 -6.42226
lfemur -33.5883 4.32754 -10.4252
ltibia 48.5178 0 0
lfoot -8.53635 10.9429 0
ltoes -10.6467 0 0
rfemur 3.61196 6.49578 32.5481
rtibia 8.12979 0 0
rfoot -9.78232 6.35777 0
rtoes -13.33 0 0
lowerback -7.51154 1.34603 2.07901
upperback -0.949118 1.43471 3.70493
thorax 3.24481 0.736571 2.9243
lowerneck -18.9359 -6.67462 -13.8219
upperneck 20.4093 -8.70603 14.0799
head 10.9615 -3.48243 6.10656
lclavicle 4.93028e-14 3.34052e-14 0
lhumerus -52.302 -15.6344 100.174
lradius 27.1639 0 0
lwrist 9.48783 0 0
lhand -11.3782 -22.8156 0
lfingers 7.12502 0 0
lthumb 14.6552 6.63229 0
rclavicle 4.93028e-14 3.34052e-14 0
rhumerus -33.483 14.9939 -85.3344
rradius 39.7932 0 0
rwrist -20.916 0 0
rhand -29.6932 -23.9678 0
rfingers 7.12502 0 0
rthumb -3.02115 -53.9263 0
377
root 9.3374 16.9707 17.0654 7.13905 3.155 -6.57539
lfemur -34.1886 4.15839 -10.3083
ltibia 47.5897 0 0
lfoot -8.67407 10.9079 0
ltoes -10.8525 0 0
rfemur 4.67251 6.53096 32.7212
rtibia 7.26222 0 0
rfoot -9.55979 6.52045 0
rtoes -13.4002 0 0
lowerback -7.58035 1.47712 2.18867
upperback -0.923528 1.59581 3.73648
thorax 3.30439 0.817826 2.91427
lowerneck -18.9184 -6.6828 -13.8243
upperneck 20.4217 -8.71428 14.0581
head 10.9626 -3.4892 6.09767
lclavicle 5.01323e-14 3.46414e-14 0
lhumerus -52.7082 -15.3065 100.102
lradius 27.1753 0 0
lwrist 9.4382 0 0
lhand -11.269 -22.9243 0
lfingers 7.12502 0 0
lthumb 14.7604 6.51596 0
rclavicle 5.01323e-14 3.46414e-14 0
rhumerus -33.1915 15.009 -85.3551
rradius 39.761 0 0
rwrist -20.7854 0 0
rhand -29.6752 -23.8392 0
rfingers 7.12502 0 0
rthumb -3.00379 -53.7979 0
378
root 9.34647 16.9602 17.1984 7.15487 2.93175 -6.72066
lfemur -34.7674 3.99163 -10.2039
ltibia 46.665 0 0
lfoot -8.81365 10.8693 0
ltoes -11.0467 0 0
rfemur 5.69727 6.5609 32.8824
rtibia 6.44016 0 0
rfoot -9.34474 6.67183 0
rtoes -13.4718 0 0
lowerback -7.64748 1.6037 2.29331
upperback -0.897406 1.75147 3.76614
thorax 3.36382 0.896282 2.90444
lowerneck -18.9036 -6.68899 -13.8248
upperneck 20.4357 -8.71972 14.0348
head 10.9645 -3.49467 6.08836
lclavicle 5.09222e-14 3.58383e-14 0
lhumerus -53.0867 -14.9854 100.024
lradius 27.1843 0 0
lwrist 9.38364 0 0
lhand -11.1626 -23.0316 0
lfingers 7.12502 0 0
lthumb 14.863 6.40129 0
rclavicle 5.09222e-14 3.58383e-14 0
rhumerus -32.9105 15.0209 -85.3765
rradius 39.7275 0 0
rwrist -20.6542 0 0
rhand -29.6582 -23.7155 0
rfingers 7.12502 0 0
rthumb -2.98732 -53.6745 0
379
root 9.35598 16.9495 17.331 7.16883 2.71203 -6.85817
lfemur -35.3248 3.82736 -10.1118
ltibia 45.7445 0 0
lfoot -8.95486 10.8275 0
ltoes -11.2294 0 0
rfemur 6.68632 6.58575 33.0317
rtibia 5.66296 0 0
rfoot -9.13716 6.81215 0
rtoes -13.5447 0 0
lowerback -7.71292 1.72578 2.39301
upperback -0.870797 1.9017 3.79396
thorax 3.42305 0.971948 2.89481
lowerneck -18.8915 -6.69324 -13.8234
upperneck 20.4516 -8.72244 14.0098
head 10.9669 -3.49887 6.07865
lclavicle 5.16728e-14 3.69959e-14 0
lhumerus -53.4379 -14.6713 99.9395
lradius 27.1909 0 0
lwrist 9.32439 0 0
lhand -11.0589 -23.1374 0
lfingers 7.12502 0 0
lthumb 14.9629 6.28833 0
rclavicle 5.16728e-14 3.69959e-14 0
rhumerus -32.64 15.0297 -85.3983
rradius 39.6929 0 0
rwrist -20.5224 0 0
rhand -29.642 -23.5967 0
rfingers 7.12502 0 0
rthumb -2.97174 -53.5559 0
380
root 9.36591 16.9387 17.4632 7.18099 2.49597 -6.98802
lfemur -35.861 3.66569 -10.0317
ltibia 44.8291 0 0
lfoot -9.09751 10.7825 0
ltoes -11.401 0 0
rfemur 7.6398 6.60565 33.1695
rtibia 4.92998 0 0
rfoot -8.93702 6.94161 0
rtoes -13.6186 0 0
lowerback -7.77666 1.84339 2.4878
upperback -0.843747 2.04651 3.81996
thorax 3.48201 1.04483 2.88539
lowerneck -18.8819 -6.69562 -13.8203
upperneck 20.469 -8.72251 13.9834
head 10.97 -3.50184 6.06855
lclavicle 5.23846e-14 3.81142e-14 0
lhumerus -53.7625 -14.3644 99.8496
lradius 27.1953 0 0
lwrist 9.26065 0 0
lhand -10.9579 -23.2416 0
lfingers 7.12502 0 0
lthumb 15.0602 6.17716 0
rclavicle 5.23846e-14 3.81142e-14 0
rhumerus -32.3799 15.0354 -85.4207
rradius 39.6572 0 0
rwrist -20.3902 0 0
rhand -29.6268 -23.4828 0
rfingers 7.12502 0 0
rthumb -2.95702 -53.4422 0
381
root 9.37624 16.9278 17.5951 7.19137 2.2837 -7.11033
lfemur -36.3761 3.5067 -9.96319
ltibia 43.9196 0 0
lfoot -9.24138 10.7345 0
ltoes -11.5615 0 0
rfemur 8.55779 6.62074 33.296
rtibia 4.24057 0 0
rfoot -8.7443 7.06044 0
rtoes -13.6936 0 0
lowerback -7.83867 1.95654 2.57775
upperback -0.816301 2.18593 3.84418
thorax 3.54065 1.11495 2.87617
lowerneck -18.8748 -6.69619 -13.8154
upperneck 20.488 -8.72004 13.9555
head 10.9737 -3.50362 6.05811
lclavicle 5.30582e-14 3.91934e-14 0
lhumerus -54.0609 -14.0648 99.7544
lradius 27.1974 0 0
lwrist 9.19266 0 0
lhand -10.8598 -23.3441 0
lfingers 7.12502 0 0
lthumb 15.1547 6.06785 0
rclavicle 5.30582e-14 3.91934e-14 0
rhumerus -32.1303 15.0382 -85.4435
rradius 39.6204 0 0
rwrist -20.2578 0 0
rhand -29.6124 -23.3737 0
rfingers 7.12502 0 0
rthumb -2.94316 -53.3333 0
382
root 9.38696 16.9169 17.7266 7.20004 2.07533 -7.22521
lfemur -36.8701 3.35049 -9.90601
ltibia 43.0168 0 0
lfoot -9.38626 10.6836 0
ltoes -11.7111 0 0
rfemur 9.44042 6.63116 33.4114
rtibia 3.59409 0 0
rfoot -8.55898 7.16884 0
rtoes -13.7694 0 0
lowerback -7.89895 2.06525 2.66292
upperback -0.788503 2.31996 3.86664
thorax 3.59891 1.18231 2.86717
lowerneck -18.8701 -6.695 -13.8089
upperneck 20.5085 -8.7151 13.9263
head 10.9779 -3.50424 6.04734
lclavicle 5.3694e-14 4.02333e-14 0
lhumerus -54.3337 -13.7724 99.6541
lradius 27.1974 0 0
lwrist 9.12063 0 0
lhand -10.7644 -23.4449 0
lfingers 7.12502 0 0
lthumb 15.2466 5.96045 0
rclavicle 5.3694e-14 4.02333e-14 0
rhumerus -31.891 15.0382 -85.4667
rradius 39.5828 0 0
rwrist -20.1253 0 0
rhand -29.5989 -23.2693 0
rfingers 7.12502 0 0
rthumb -2.93015 -53.2292 0
383
root 9.39806 16.906 17.858 7.20704 1.87098 -7.33276
lfemur -37.3432 3.19716 -9.85985
ltibia 42.1217 0 0
lfoot -9.53195 10.6301 0
ltoes -11.85 0 0
rfemur 10.2878 6.63707 33.5159
rtibia 2.98987 0 0
rfoot -8.38104 7.26703 0
rtoes -13.846 0 0
lowerback -7.95749 2.16953 2.74336
upperback -0.760401 2.44863 3.88739
thorax 3.65673 1.24692 2.85838
lowerneck -18.8677 -6.69211 -13.8008
upperneck 20.5304 -8.70779 13.8958
head 10.9827 -3.50374 6.03626
lclavicle 5.42926e-14 4.12342e-14 0
lhumerus -54.5814 -13.4876 99.549
lradius 27.1953 0 0
lwrist 9.04479 0 0
lhand -10.6719 -23.5439 0
lfingers 7.12502 0 0
lthumb 15.3357 5.85504 0
rclavicle 5.42926e-14 4.12342e-14 0
rhumerus -31.662 15.0354 -85.4903
rradius 39.5442 0 0
rwrist -19.9929 0 0
rhand -29.5863 -23.1698 0
rfingers 7.12502 0 0
rthumb -2.91796 -53.1298 0
384
root 9.40951 16.8951 17.9891 7.21241 1.67078 -7.4331
lfemur -37.7954 3.04681 -9.8244
ltibia 41.2352 0 0
lfoot -9.67823 10.574 0
ltoes -11.9785 0 0
rfemur 11.1 6.63859 33.6098
rtibia 2.42729 0 0
rfoot -8.21045 7.35523 0
rtoes -13.9232 0 0
lowerback -8.01425 2.2694 2.81912
upperback -0.732038 2.57196 3.90644
thorax 3.71405 1.3088 2.84981
lowerneck -18.8675 -6.68759 -13.7912
upperneck 20.5536 -8.69819 13.8641
head 10.988 -3.50217 6.0249
lclavicle 5.48543e-14 4.2196e-14 0
lhumerus -54.8045 -13.2103 99.4394
lradius 27.1912 0 0
lwrist 8.96536 0 0
lhand -10.5823 -23.6411 0
lfingers 7.12502 0 0
lthumb 15.4221 5.75168 0
rclavicle 5.48543e-14 4.2196e-14 0
rhumerus -31.4432 15.0299 -85.5142
rradius 39.5049 0 0
rwrist -19.8608 0 0
rhand -29.5746 -23.075 0
rfingers 7.12502 0 0
rthumb -2.9066 -53.0351 0
385
root 9.4213 16.8843 18.12 7.2162 1.47486 -7.52632
lfemur -38.2269 2.89953 -9.79937
ltibia 40.358 0 0
lfoot -9.8249 10.5155 0
ltoes -12.0966 0 0
rfemur 11.8772 6.63588 33.6933
rtibia 1.90569 0 0
rfoot -8.04719 7.43366 0
rtoes -14.001 0 0
lowerback -8.06924 2.36487 2.89027
upperback -0.703461 2.68995 3.92383
thorax 3.77083 1.36794 2.84147
lowerneck -18.8696 -6.68149 -13.78
upperneck 20.5781 -8.68639 13.8313
head 10.9938 -3.49955 6.01328
lclavicle 5.53798e-14 4.31187e-14 0
lhumerus -55.0035 -12.9406 99.3256
lradius 27.1852 0 0
lwrist 8.88255 0 0
lhand -10.4956 -23.7364 0
lfingers 7.12502 0 0
lthumb 15.5056 5.65044 0
rclavicle 5.53798e-14 4.31187e-14 0
rhumerus -31.2346 15.0219 -85.5384
rradius 39.4649 0 0
rwrist -19.7291 0 0
rhand -29.5636 -22.9848 0
rfingers 7.12502 0 0
rthumb -2.89604 -52.9452 0
